<svg width="42.000000" height="42.000000" viewBox="0 0 42 42" fill="none" xmlns="http://www.w3.org/2000/svg" xmlns:xlink="http://www.w3.org/1999/xlink">
	<desc>
			Created with Pixso.
	</desc>
	<defs>
		<clipPath id="clip87_418">
			<rect id="uit:facebook-f" width="42.000000" height="42.000000" fill="white" fill-opacity="0"/>
		</clipPath>
	</defs>
	<rect id="uit:facebook-f" width="42.000000" height="42.000000" fill="#FFFFFF" fill-opacity="0"/>
	<g clip-path="url(#clip87_418)">
		<path id="Vector" d="M31.48 2.79C29.71 2.6 27.94 2.51 26.16 2.52C20.28 2.52 16.62 6.26 16.62 12.3L16.62 16.39L11.68 16.39C11.44 16.39 11.22 16.49 11.06 16.65C10.89 16.81 10.8 17.04 10.8 17.27L10.8 24.01C10.8 24.24 10.89 24.46 11.06 24.63C11.22 24.79 11.44 24.88 11.68 24.88L16.62 24.88L16.62 38.39C16.62 38.62 16.71 38.85 16.88 39.01C17.04 39.17 17.26 39.27 17.5 39.27L24.46 39.27C24.69 39.27 24.91 39.17 25.08 39.01C25.24 38.85 25.33 38.62 25.33 38.39L25.33 24.88L30.26 24.88C30.47 24.88 30.68 24.8 30.84 24.66C31 24.52 31.1 24.33 31.13 24.12L32 17.38C32.01 17.26 32 17.13 31.97 17.01C31.93 16.9 31.87 16.79 31.79 16.69C31.71 16.6 31.6 16.52 31.49 16.47C31.38 16.42 31.25 16.39 31.13 16.39L25.33 16.39L25.33 12.97C25.33 11.27 25.67 10.56 27.8 10.56L31.36 10.56C31.6 10.56 31.82 10.47 31.98 10.3C32.15 10.14 32.24 9.92 32.24 9.68L32.24 3.66C32.24 3.44 32.16 3.24 32.02 3.08C31.88 2.92 31.69 2.82 31.48 2.79ZM30.49 8.81L27.79 8.81C24.02 8.81 23.58 11.18 23.58 12.97L23.58 17.27C23.58 17.5 23.67 17.73 23.84 17.89C24 18.05 24.22 18.15 24.45 18.15L30.14 18.15L29.49 23.13L24.46 23.13C24.22 23.13 24 23.23 23.84 23.39C23.67 23.55 23.58 23.78 23.58 24.01L23.58 37.52L18.37 37.52L18.37 24.01C18.37 23.78 18.28 23.55 18.11 23.39C17.95 23.23 17.73 23.13 17.5 23.13L12.55 23.13L12.55 18.15L17.5 18.15C17.73 18.15 17.95 18.05 18.11 17.89C18.28 17.73 18.37 17.5 18.37 17.27L18.37 12.3C18.37 7.27 21.28 4.27 26.16 4.27C27.93 4.27 29.52 4.36 30.49 4.45L30.49 8.81Z" fill="#FFFFFF" fill-opacity="1.000000" fill-rule="nonzero"/>
	</g>
</svg>
