<svg width="42.000000" height="42.000000" viewBox="0 0 42 42" fill="none" xmlns="http://www.w3.org/2000/svg" xmlns:xlink="http://www.w3.org/1999/xlink">
	<desc>
			Created with Pixso.
	</desc>
	<defs>
		<clipPath id="clip87_420">
			<rect id="ph:instagram-logo-light" width="42.000000" height="42.000000" fill="white" fill-opacity="0"/>
		</clipPath>
	</defs>
	<rect id="ph:instagram-logo-light" width="42.000000" height="42.000000" fill="#FFFFFF" fill-opacity="0"/>
	<g clip-path="url(#clip87_420)">
		<path id="Vector" d="M21 13.45C19.5 13.45 18.04 13.89 16.8 14.72C15.56 15.55 14.59 16.73 14.02 18.11C13.45 19.49 13.3 21 13.59 22.47C13.88 23.93 14.6 25.28 15.66 26.33C16.71 27.39 18.06 28.11 19.52 28.4C20.99 28.69 22.5 28.54 23.88 27.97C25.26 27.4 26.44 26.43 27.27 25.19C28.1 23.95 28.54 22.49 28.54 21C28.54 18.99 27.75 17.07 26.33 15.66C24.92 14.24 23 13.45 21 13.45ZM21 26.57C19.89 26.57 18.81 26.25 17.9 25.63C16.98 25.02 16.26 24.15 15.84 23.13C15.42 22.11 15.31 20.99 15.52 19.91C15.74 18.82 16.27 17.83 17.05 17.05C17.83 16.27 18.82 15.74 19.91 15.52C20.99 15.31 22.11 15.42 23.13 15.84C24.15 16.26 25.02 16.98 25.63 17.9C26.25 18.81 26.57 19.89 26.57 21C26.57 22.47 25.98 23.89 24.93 24.93C23.89 25.98 22.47 26.57 21 26.57ZM28.21 4.92L13.78 4.92C11.43 4.92 9.17 5.85 7.51 7.51C5.85 9.17 4.92 11.43 4.92 13.78L4.92 28.21C4.92 30.56 5.85 32.82 7.51 34.48C9.17 36.14 11.43 37.07 13.78 37.07L28.21 37.07C30.56 37.07 32.82 36.14 34.48 34.48C36.14 32.82 37.07 30.56 37.07 28.21L37.07 13.78C37.07 11.43 36.14 9.17 34.48 7.51C32.82 5.85 30.56 4.92 28.21 4.92ZM35.1 28.21C35.1 30.04 34.38 31.79 33.09 33.09C31.79 34.38 30.04 35.1 28.21 35.1L13.78 35.1C11.95 35.1 10.2 34.38 8.9 33.09C7.61 31.79 6.89 30.04 6.89 28.21L6.89 13.78C6.89 11.95 7.61 10.2 8.9 8.9C10.2 7.61 11.95 6.89 13.78 6.89L28.21 6.89C30.04 6.89 31.79 7.61 33.09 8.9C34.38 10.2 35.1 11.95 35.1 13.78L35.1 28.21ZM31.17 12.46C31.17 12.79 31.07 13.11 30.89 13.38C30.71 13.65 30.45 13.86 30.15 13.98C29.85 14.1 29.52 14.14 29.21 14.07C28.89 14.01 28.6 13.85 28.37 13.62C28.14 13.39 27.98 13.1 27.92 12.78C27.85 12.47 27.89 12.14 28.01 11.84C28.13 11.54 28.35 11.28 28.61 11.1C28.88 10.92 29.2 10.82 29.53 10.82C29.96 10.82 30.38 11 30.69 11.3C30.99 11.61 31.17 12.03 31.17 12.46Z" fill="#FFFFFF" fill-opacity="1.000000" fill-rule="nonzero"/>
	</g>
</svg>
