<svg width="42.000000" height="42.000000" viewBox="0 0 42 42" fill="none" xmlns="http://www.w3.org/2000/svg" xmlns:xlink="http://www.w3.org/1999/xlink">
	<desc>
			Created with Pixso.
	</desc>
	<defs>
		<clipPath id="clip87_416">
			<rect id="telephone-receiver_icon-icons.com_56033 1" width="42.000000" height="42.000000" fill="white" fill-opacity="0"/>
		</clipPath>
	</defs>
	<rect id="telephone-receiver_icon-icons.com_56033 1" width="42.000000" height="42.000000" fill="#FFFFFF" fill-opacity="0"/>
	<g clip-path="url(#clip87_416)">
		<path id="Vector" d="M36.29 30.13L36.06 29.84C34.26 27.57 32.76 26.38 31.47 26.23C30.35 26.07 29.27 26.85 28.12 27.64L26.9 28.41C26.75 28.48 26.6 28.54 26.47 28.58C25.75 28.78 23.94 28.9 22.91 27.96C21.72 26.87 19.87 24.87 18.43 23.13C17.05 21.32 15.54 19.06 14.75 17.65C14.08 16.44 14.64 14.76 15.02 14.14C15.09 14.02 15.18 13.9 15.29 13.78L16.37 12.78C16.39 12.76 16.4 12.74 16.41 12.73C16.42 12.72 16.44 12.72 16.45 12.71C17.43 11.89 18.44 11.04 18.57 9.95C18.74 8.67 17.94 6.94 16.14 4.66L15.92 4.38C14.8 2.95 13.11 0.78 10.69 1.14C9.73 1.28 8.88 1.6 8 2.16C7.99 2.16 7.99 2.17 7.98 2.18C7.97 2.18 7.96 2.18 7.96 2.19L6.73 3.09C6.72 3.1 6.71 3.12 6.7 3.13C6.69 3.14 6.68 3.14 6.67 3.15C6.53 3.27 6.39 3.39 6.25 3.51C5.01 4.62 2.32 7.83 4.15 13.77C5.33 17.61 7.77 22.08 11.22 26.74L11.19 26.77L13.09 29.14L13.11 29.13C16.85 33.55 20.65 36.97 24.14 39.04C26.47 40.42 28.5 40.88 30.18 40.88C32.38 40.88 33.95 40.09 34.74 39.57L35.24 39.24C35.3 39.2 35.34 39.15 35.38 39.1L36.46 38.28C36.47 38.27 36.48 38.26 36.49 38.25C36.5 38.24 36.51 38.25 36.51 38.24C37.28 37.54 37.82 36.8 38.19 35.93C39.15 33.69 37.43 31.55 36.29 30.13ZM36.9 35.38C36.61 36.06 36.19 36.63 35.58 37.19L33.97 38.41C32.51 39.36 29.39 40.53 24.86 37.84C21.37 35.77 17.53 32.27 13.75 27.72L12.73 26.42C9.17 21.71 6.67 17.19 5.49 13.36C3.95 8.38 5.89 5.71 7.18 4.56C7.31 4.44 7.45 4.33 7.58 4.22L7.58 4.21L8.76 3.34C9.47 2.89 10.13 2.64 10.89 2.52C12.52 2.28 13.84 3.99 14.81 5.24L15.04 5.53C17.06 8.07 17.25 9.28 17.19 9.77C17.12 10.32 16.28 11.02 15.55 11.64L15.45 11.73C15.44 11.73 15.44 11.74 15.44 11.74C15.43 11.74 15.43 11.74 15.42 11.75L14.3 12.78C14.3 12.79 14.29 12.8 14.29 12.81C14.28 12.82 14.26 12.82 14.26 12.83C14.08 13.02 13.94 13.22 13.81 13.42C13.19 14.47 12.59 16.64 13.53 18.32C14.35 19.79 15.9 22.12 17.33 23.99C18.83 25.81 20.73 27.86 21.97 28.99C22.89 29.84 24.18 30.12 25.3 30.12C25.89 30.12 26.44 30.04 26.86 29.92C27.07 29.86 27.3 29.77 27.53 29.65C27.55 29.65 27.55 29.63 27.57 29.63C27.57 29.62 27.59 29.62 27.59 29.62L28.89 28.81C28.93 28.78 28.96 28.74 29 28.71L29.01 28.72C29.81 28.17 30.72 27.52 31.29 27.61C31.8 27.67 32.95 28.16 34.97 30.71L35.2 31C36.18 32.23 37.53 33.91 36.9 35.38Z" fill="#FFFFFF" fill-opacity="1.000000" fill-rule="nonzero"/>
	</g>
</svg>
