<svg width="32.000000" height="32.000000" viewBox="0 0 32 32" fill="none" xmlns="http://www.w3.org/2000/svg" xmlns:xlink="http://www.w3.org/1999/xlink">
	<desc>
			Created with Pixso.
	</desc>
	<defs>
		<clipPath id="clip74_462">
			<rect id="uit:facebook-f" width="32.000000" height="32.000000" fill="white" fill-opacity="0"/>
		</clipPath>
	</defs>
	<rect id="uit:facebook-f" width="32.000000" height="32.000000" fill="#FFFFFF" fill-opacity="0"/>
	<g clip-path="url(#clip74_462)">
		<path id="Vector" d="M23.98 2.12C22.64 1.98 21.29 1.91 19.93 1.91C15.45 1.91 12.66 4.77 12.66 9.37L12.66 12.49L8.89 12.49C8.72 12.49 8.55 12.56 8.42 12.68C8.3 12.81 8.23 12.98 8.23 13.16L8.23 18.29C8.23 18.47 8.3 18.64 8.42 18.76C8.55 18.89 8.72 18.96 8.89 18.96L12.66 18.96L12.66 29.25C12.66 29.43 12.73 29.6 12.86 29.72C12.98 29.85 13.15 29.92 13.33 29.92L18.63 29.92C18.81 29.92 18.98 29.85 19.1 29.72C19.23 29.6 19.3 29.43 19.3 29.25L19.3 18.96L23.05 18.96C23.22 18.96 23.37 18.9 23.49 18.79C23.62 18.68 23.69 18.54 23.72 18.38L24.38 13.24C24.39 13.15 24.38 13.05 24.35 12.96C24.33 12.87 24.28 12.79 24.22 12.72C24.16 12.65 24.08 12.59 23.99 12.55C23.91 12.51 23.81 12.49 23.72 12.49L19.3 12.49L19.3 9.88C19.3 8.58 19.56 8.04 21.18 8.04L23.89 8.04C24.07 8.04 24.24 7.97 24.37 7.85C24.49 7.72 24.56 7.55 24.56 7.38L24.56 2.78C24.56 2.62 24.5 2.47 24.4 2.34C24.29 2.22 24.14 2.14 23.98 2.12ZM23.23 6.71L21.18 6.71C18.3 6.71 17.97 8.52 17.97 9.88L17.97 13.16C17.97 13.33 18.04 13.5 18.16 13.63C18.29 13.75 18.45 13.82 18.63 13.82L22.96 13.82L22.47 17.62L18.63 17.62C18.46 17.62 18.29 17.69 18.16 17.82C18.04 17.94 17.97 18.11 17.97 18.29L17.97 28.58L14 28.58L14 18.29C14 18.11 13.92 17.94 13.8 17.82C13.67 17.69 13.51 17.62 13.33 17.62L9.56 17.62L9.56 13.82L13.33 13.82C13.51 13.82 13.67 13.75 13.8 13.63C13.92 13.5 14 13.33 14 13.16L14 9.37C14 5.54 16.22 3.25 19.93 3.25C21.28 3.25 22.49 3.32 23.23 3.39L23.23 6.71Z" fill="#011C44" fill-opacity="1.000000" fill-rule="nonzero"/>
	</g>
</svg>
