<svg width="32.000000" height="32.000000" viewBox="0 0 32 32" fill="none" xmlns="http://www.w3.org/2000/svg" xmlns:xlink="http://www.w3.org/1999/xlink">
	<desc>
			Created with Pixso.
	</desc>
	<defs>
		<clipPath id="clip74_460">
			<rect id="ph:instagram-logo-light" width="32.000000" height="32.000000" fill="white" fill-opacity="0"/>
		</clipPath>
	</defs>
	<rect id="ph:instagram-logo-light" width="32.000000" height="32.000000" fill="#FFFFFF" fill-opacity="0"/>
	<g clip-path="url(#clip74_460)">
		<path id="Vector" d="M16 10.25C14.86 10.25 13.75 10.58 12.8 11.21C11.85 11.85 11.12 12.74 10.68 13.79C10.25 14.85 10.13 16 10.36 17.12C10.58 18.23 11.12 19.26 11.93 20.06C12.73 20.87 13.76 21.41 14.87 21.63C15.99 21.86 17.14 21.74 18.2 21.31C19.25 20.87 20.14 20.14 20.78 19.19C21.41 18.24 21.75 17.13 21.75 16C21.75 14.47 21.14 13.01 20.06 11.93C18.98 10.85 17.52 10.25 16 10.25ZM16 20.25C15.15 20.25 14.33 20 13.63 19.53C12.93 19.06 12.39 18.4 12.07 17.62C11.75 16.84 11.66 15.99 11.83 15.17C11.99 14.34 12.4 13.58 12.99 12.99C13.58 12.4 14.34 11.99 15.17 11.83C15.99 11.66 16.84 11.75 17.62 12.07C18.4 12.39 19.06 12.93 19.53 13.63C20 14.33 20.25 15.15 20.25 16C20.24 17.12 19.79 18.2 19 19C18.2 19.79 17.12 20.24 16 20.25ZM21.5 3.75L10.5 3.75C8.7 3.75 6.99 4.46 5.72 5.72C4.46 6.99 3.75 8.7 3.75 10.5L3.75 21.5C3.75 23.29 4.46 25 5.72 26.27C6.99 27.53 8.7 28.25 10.5 28.25L21.5 28.25C23.29 28.25 25 27.53 26.27 26.27C27.53 25 28.25 23.29 28.25 21.5L28.25 10.5C28.25 8.7 27.53 6.99 26.27 5.72C25 4.46 23.29 3.75 21.5 3.75ZM26.75 21.5C26.75 22.89 26.19 24.22 25.21 25.21C24.22 26.19 22.89 26.75 21.5 26.75L10.5 26.75C9.1 26.75 7.77 26.19 6.78 25.21C5.8 24.22 5.25 22.89 5.25 21.5L5.25 10.5C5.25 9.1 5.8 7.77 6.78 6.78C7.77 5.8 9.1 5.25 10.5 5.25L21.5 5.25C22.89 5.25 24.22 5.8 25.21 6.78C26.19 7.77 26.75 9.1 26.75 10.5L26.75 21.5ZM23.75 9.5C23.75 9.74 23.67 9.98 23.53 10.19C23.4 10.39 23.2 10.56 22.97 10.65C22.75 10.74 22.49 10.77 22.25 10.72C22.01 10.67 21.79 10.55 21.61 10.38C21.44 10.2 21.32 9.98 21.27 9.74C21.22 9.5 21.25 9.25 21.34 9.02C21.43 8.79 21.6 8.59 21.8 8.46C22.01 8.32 22.25 8.25 22.5 8.25C22.83 8.25 23.14 8.38 23.38 8.61C23.61 8.85 23.75 9.16 23.75 9.5Z" fill="#011C44" fill-opacity="1.000000" fill-rule="nonzero"/>
	</g>
</svg>
