<svg width="32.000000" height="32.000000" viewBox="0 0 32 32" fill="none" xmlns="http://www.w3.org/2000/svg" xmlns:xlink="http://www.w3.org/1999/xlink">
	<desc>
			Created with Pixso.
	</desc>
	<defs>
		<clipPath id="clip74_466">
			<rect id="telephone-receiver_icon-icons.com_56033 1" width="32.000000" height="32.000000" fill="white" fill-opacity="0"/>
		</clipPath>
	</defs>
	<rect id="telephone-receiver_icon-icons.com_56033 1" width="32.000000" height="32.000000" fill="#FFFFFF" fill-opacity="0"/>
	<g clip-path="url(#clip74_466)">
		<path id="Vector" d="M27.65 22.95L27.48 22.74C26.1 21 24.96 20.1 23.97 19.98C23.12 19.86 22.3 20.45 21.43 21.06L20.49 21.64C20.38 21.7 20.27 21.74 20.16 21.77C19.62 21.93 18.24 22.02 17.46 21.3C16.55 20.47 15.14 18.95 14.04 17.62C12.99 16.24 11.84 14.52 11.24 13.44C10.73 12.53 11.15 11.25 11.44 10.77C11.49 10.68 11.57 10.59 11.65 10.5L12.47 9.73C12.49 9.72 12.49 9.71 12.5 9.7C12.51 9.69 12.52 9.69 12.53 9.68C13.28 9.06 14.05 8.41 14.15 7.58C14.27 6.6 13.67 5.28 12.29 3.55L12.13 3.33C11.27 2.24 9.99 0.59 8.14 0.87C7.41 0.97 6.76 1.22 6.09 1.64C6.09 1.65 6.08 1.65 6.08 1.66C6.07 1.66 6.07 1.66 6.06 1.67L5.13 2.36C5.12 2.36 5.11 2.37 5.11 2.38C5.1 2.39 5.09 2.39 5.08 2.4C4.97 2.49 4.86 2.58 4.76 2.68C3.81 3.52 1.77 5.97 3.16 10.49C4.06 13.41 5.92 16.82 8.55 20.37L8.52 20.39L9.97 22.2L9.99 22.19C12.83 25.56 15.73 28.17 18.39 29.74C20.17 30.8 21.71 31.15 22.99 31.15C24.67 31.15 25.87 30.54 26.47 30.15L26.85 29.9C26.89 29.87 26.92 29.83 26.95 29.79L27.78 29.17C27.79 29.16 27.79 29.15 27.8 29.14C27.81 29.14 27.81 29.14 27.82 29.14C28.41 28.6 28.81 28.04 29.09 27.37C29.83 25.67 28.52 24.03 27.65 22.95ZM28.11 26.95C27.89 27.47 27.57 27.91 27.11 28.34L25.88 29.26C24.77 29.98 22.39 30.88 18.94 28.83C16.28 27.25 13.36 24.58 10.48 21.12L9.7 20.13C6.99 16.54 5.08 13.09 4.18 10.18C3.01 6.38 4.49 4.35 5.47 3.47C5.57 3.38 5.67 3.29 5.77 3.21L5.77 3.21L6.67 2.54C7.21 2.2 7.72 2.01 8.3 1.92C9.54 1.73 10.54 3.04 11.28 3.99L11.46 4.21C12.99 6.15 13.14 7.07 13.09 7.44C13.04 7.86 12.41 8.4 11.85 8.87L11.77 8.93C11.76 8.94 11.76 8.94 11.76 8.94C11.76 8.95 11.75 8.95 11.75 8.95L10.9 9.74C10.89 9.74 10.89 9.75 10.88 9.76C10.88 9.76 10.87 9.77 10.86 9.77C10.73 9.92 10.62 10.07 10.52 10.22C10.05 11.02 9.59 12.68 10.31 13.96C10.93 15.08 12.11 16.85 13.2 18.28C14.34 19.66 15.79 21.23 16.74 22.09C17.44 22.73 18.42 22.95 19.27 22.95C19.73 22.95 20.14 22.89 20.46 22.8C20.63 22.75 20.8 22.68 20.98 22.59C20.99 22.59 20.99 22.58 21 22.57C21.01 22.57 21.02 22.57 21.02 22.57L22.01 21.95C22.04 21.93 22.06 21.9 22.09 21.87L22.1 21.88C22.71 21.46 23.41 20.97 23.84 21.04C24.23 21.08 25.1 21.46 26.64 23.4L26.82 23.62C27.57 24.56 28.59 25.83 28.11 26.95Z" fill="#011C44" fill-opacity="1.000000" fill-rule="nonzero"/>
	</g>
</svg>
