<svg width="72.000000" height="35.000000" viewBox="0 0 72 35" fill="none" xmlns="http://www.w3.org/2000/svg" xmlns:xlink="http://www.w3.org/1999/xlink">
	<desc>
			Created with Pixso.
	</desc>
	<defs/>
	<path id="logo" d="M6.32 -0.9L0.54 -0.9L0.54 13.38L6.48 13.38Q9.38 13.38 10.77 12.66C11.69 12.17 12.15 11.35 12.15 10.19L12.15 7.99Q12.15 7.82 12.11 7.65Q11.99 7.08 11.45 6.61C10.99 6.18 10.49 5.94 9.93 5.88L9.93 5.77C10.35 5.64 10.72 5.4 11.03 5.04C11.35 4.69 11.51 4.32 11.51 3.92L11.51 2.16Q11.51 1 11.05 0.36C10.74 -0.08 10.22 -0.4 9.47 -0.59C8.73 -0.79 7.69 -0.9 6.32 -0.9ZM56.12 13.54C56.49 13.58 56.94 13.6 57.48 13.6C57.98 13.6 58.58 13.57 59.26 13.49L59.26 11.49C58.71 11.56 58.33 11.6 58.12 11.6Q57.35 11.6 56.98 11.45C56.73 11.33 56.56 11.15 56.47 10.9C56.38 10.63 56.34 10.24 56.34 9.73L56.34 4.71L59.26 4.71L59.26 2.73L56.34 2.73L56.34 -0.35L53.13 -0.35L53.13 2.73L50.97 2.73L50.97 4.71L53.13 4.71L53.13 10.28C53.13 10.84 53.21 11.33 53.39 11.75C53.55 12.16 53.76 12.49 54.01 12.72C54.27 12.96 54.61 13.14 55.02 13.27C55.39 13.4 55.75 13.49 56.12 13.54ZM7.53 4.78C7.27 4.87 6.86 4.91 6.32 4.91L3.97 4.91L3.97 1.55L6.26 1.55Q7.14 1.55 7.53 1.66C7.81 1.73 7.99 1.85 8.08 2.03C8.17 2.19 8.21 2.44 8.21 2.78L8.21 3.48Q8.21 4.05 8.06 4.36C7.97 4.55 7.8 4.69 7.53 4.78ZM14.48 11.77Q15.6 13.6 19.71 13.6C21.2 13.6 22.59 13.46 23.89 13.18L23.89 11.14C22.57 11.45 21.39 11.6 20.33 11.6Q18.61 11.6 17.95 11.2C17.51 10.94 17.29 10.5 17.29 9.88L17.29 8.92L24.2 8.92L24.2 6.32Q24.2 4.52 23.3 3.64Q23.17 3.51 23.01 3.39Q21.85 2.51 19.32 2.51Q16.63 2.51 15.34 3.42C14.49 4.02 14.06 4.99 14.06 6.32L14.06 10.15Q14.06 11.09 14.48 11.77ZM27.43 13.34C27.93 13.51 28.67 13.6 29.67 13.6C30.86 13.6 31.67 13.51 32.09 13.32Q32.3 13.23 32.49 13.1Q32.85 12.84 33.1 12.41L33.1 13.38L36.25 13.38L36.25 6.06C36.25 5.1 36.09 4.38 35.76 3.88C35.44 3.38 34.91 3.03 34.16 2.82C33.43 2.62 32.38 2.51 31.01 2.51Q28.68 2.51 26.94 2.73L26.94 4.76C28.53 4.58 29.77 4.49 30.68 4.49C31.34 4.49 31.83 4.54 32.16 4.63C32.49 4.71 32.72 4.87 32.84 5.09C32.97 5.31 33.04 5.65 33.04 6.1L33.04 6.83L29.43 6.83Q28.17 6.83 27.45 7.16C26.98 7.36 26.63 7.71 26.41 8.19Q26.11 8.92 26.11 10.19C26.11 11.15 26.2 11.86 26.39 12.35C26.6 12.82 26.94 13.15 27.43 13.34ZM39.89 12.88C40.45 13.36 41.41 13.6 42.77 13.6C44.81 13.6 45.95 13.1 46.18 12.08L46.18 13.38L49.35 13.38L49.35 2.73L46.14 2.73L46.14 10.1C46.14 10.53 46.09 10.84 45.98 11.05C45.88 11.26 45.68 11.4 45.39 11.49C45.1 11.56 44.63 11.6 44 11.6C43.5 11.6 43.13 11.56 42.88 11.47C42.65 11.38 42.48 11.23 42.4 11.03C42.32 10.82 42.29 10.51 42.29 10.1L42.29 2.73L39.07 2.73L39.07 10.54C39.07 11.6 39.35 12.38 39.89 12.88ZM59.89 2.73L64.13 13.29L62.2 17.96L65.45 17.96L71.28 2.73L67.96 2.73L65.78 10.26L63.38 2.73L59.89 2.73ZM20.7 4.76C21 4.93 21.14 5.2 21.14 5.55L21.14 7.09L17.29 7.09L17.29 5.55Q17.29 5.3 17.4 5.1Q17.5 4.9 17.71 4.76C17.98 4.58 18.5 4.49 19.27 4.49Q20.29 4.49 20.7 4.76ZM8.19 10.65C7.84 10.84 7.25 10.94 6.41 10.94L3.97 10.94L3.97 7.13L6.87 7.13Q7.91 7.13 8.3 7.46C8.58 7.68 8.72 8.06 8.72 8.59L8.72 9.73C8.72 10.16 8.54 10.46 8.19 10.65ZM32.31 11.53C32.03 11.58 31.57 11.6 30.92 11.6C30.38 11.6 30 11.57 29.78 11.51Q29.61 11.46 29.5 11.35Q29.41 11.27 29.36 11.14Q29.25 10.85 29.25 10.13Q29.25 9.38 29.36 9.09C29.44 8.89 29.58 8.75 29.78 8.7C29.99 8.62 30.34 8.59 30.84 8.59L33.04 8.59L33.04 10.65C33.04 10.86 33.01 11.01 32.95 11.12C32.89 11.25 32.82 11.34 32.73 11.4C32.66 11.46 32.52 11.5 32.31 11.53ZM7.31 22.55L-0.12 32.29L-0.12 34.38L11.67 34.38L11.67 31.92L4.1 31.92L11.54 22.17L11.54 20.1L0.1 20.1L0.1 22.55L7.31 22.55ZM17.35 34.54C17.78 34.58 18.32 34.6 18.98 34.6C19.59 34.6 20.12 34.58 20.56 34.54C21.05 34.49 21.54 34.4 22.04 34.25C22.55 34.09 22.95 33.88 23.25 33.63C23.58 33.36 23.85 32.97 24.06 32.47C24.28 31.97 24.39 31.39 24.39 30.73L24.39 27.58Q24.39 26.48 24.06 25.69C23.83 25.18 23.54 24.78 23.2 24.5C22.88 24.23 22.45 24.01 21.93 23.84C21.44 23.7 20.99 23.61 20.58 23.58C20.19 23.54 19.65 23.51 18.98 23.51C18.52 23.51 18.02 23.53 17.46 23.56C16.98 23.6 16.48 23.71 15.96 23.89C15.47 24.05 15.06 24.25 14.75 24.5C14.4 24.8 14.12 25.21 13.9 25.74C13.68 26.26 13.57 26.88 13.57 27.58L13.57 30.73C13.57 31.42 13.68 32.01 13.9 32.49C14.12 32.99 14.39 33.38 14.71 33.66C15.03 33.92 15.46 34.13 15.99 34.27C16.47 34.4 16.92 34.49 17.35 34.54ZM30.06 23.73L26.89 23.73L26.89 34.38L30.11 34.38L30.11 26.99C30.11 26.56 30.16 26.25 30.26 26.04C30.36 25.84 30.56 25.7 30.85 25.63C31.15 25.54 31.61 25.49 32.24 25.49C32.74 25.49 33.1 25.54 33.34 25.63C33.59 25.71 33.75 25.86 33.82 26.07C33.91 26.27 33.96 26.58 33.96 26.99L33.96 34.38L37.17 34.38L37.17 26.57C37.17 25.52 36.89 24.75 36.33 24.26C35.79 23.76 34.84 23.51 33.47 23.51Q30.86 23.51 30.22 24.64Q30.11 24.82 30.06 25.03L30.06 23.73ZM39.67 31.15C39.67 33.45 41.55 34.6 45.32 34.6C46.8 34.6 48.2 34.46 49.5 34.18L49.5 32.14C48.18 32.45 47 32.6 45.94 32.6Q44.22 32.6 43.56 32.2C43.12 31.94 42.9 31.5 42.9 30.88L42.9 29.92L49.81 29.92L49.81 27.32Q49.81 25.52 48.91 24.64Q48.78 24.51 48.62 24.39C47.85 23.81 46.61 23.51 44.93 23.51C43.14 23.51 41.81 23.81 40.95 24.42C40.09 25.02 39.67 25.99 39.67 27.32L39.67 31.15ZM20.34 32.47C20.03 32.56 19.58 32.6 18.98 32.6C18.38 32.6 17.92 32.56 17.61 32.47C17.31 32.37 17.09 32.21 16.95 32.01C16.84 31.8 16.78 31.5 16.78 31.1L16.78 27.08C16.78 26.49 16.93 26.08 17.24 25.85C17.55 25.61 18.13 25.49 18.98 25.49C19.83 25.49 20.41 25.61 20.72 25.85C21.02 26.08 21.18 26.49 21.18 27.08L21.18 31.1C21.18 31.5 21.11 31.8 20.98 32.01C20.86 32.21 20.65 32.37 20.34 32.47ZM46.31 25.76C46.61 25.93 46.75 26.2 46.75 26.55L46.75 28.09L42.9 28.09L42.9 26.55C42.9 26.21 43.04 25.95 43.32 25.76C43.59 25.58 44.11 25.49 44.88 25.49C45.56 25.49 46.03 25.58 46.31 25.76Z" fill="#2B7FFF" fill-opacity="1.000000" fill-rule="evenodd"/>
</svg>
